<svg xmlns="http://www.w3.org/2000/svg" viewBox="0 0 64 64" id="css">
  <g>
    <path d="M16 12h2a1 1 0 0 0 0-2h-2a5.006 5.006 0 0 0-5 5v2a5.006 5.006 0 0 0 5 5h2a1 1 0 0 0 0-2h-2a3 3 0 0 1-3-3v-2a3 3 0 0 1 3-3zm27 30a2 2 0 0 1-2-2v-2a4 4 0 0 0-4-4 1 1 0 0 0 0 2 2 2 0 0 1 2 2v2a3.99 3.99 0 0 0 1.357 3A3.99 3.99 0 0 0 39 46v2a2 2 0 0 1-2 2 1 1 0 0 0 0 2 4 4 0 0 0 4-4v-2a2 2 0 0 1 2-2 1 1 0 0 0 0-2zm-22-4a2 2 0 0 1 2-2 1 1 0 0 0 0-2 4 4 0 0 0-4 4v2a2 2 0 0 1-2 2 1 1 0 0 0 0 2 2 2 0 0 1 2 2v2a4 4 0 0 0 4 4 1 1 0 0 0 0-2 2 2 0 0 1-2-2v-2a3.99 3.99 0 0 0-1.357-3A3.99 3.99 0 0 0 21 40zm13.5-26H36a1 1 0 0 1 1 1 1 1 0 0 0 2 0 3 3 0 0 0-3-3h-1.5a3.5 3.5 0 0 0 0 7h1a1.5 1.5 0 0 1 0 3H34a1 1 0 0 1-1-1 1 1 0 0 0-2 0 3 3 0 0 0 3 3h1.5a3.5 3.5 0 0 0 0-7h-1a1.5 1.5 0 0 1 0-3zm-10 0H26a1 1 0 0 1 1 1 1 1 0 0 0 2 0 3 3 0 0 0-3-3h-1.5a3.5 3.5 0 0 0 0 7h1a1.5 1.5 0 0 1 0 3H24a1 1 0 0 1-1-1 1 1 0 0 0-2 0 3 3 0 0 0 3 3h1.5a3.5 3.5 0 0 0 0-7h-1a1.5 1.5 0 0 1 0-3z"></path>
    <circle cx="53" cy="43" r="1"></circle>
    <path d="M57 2H11a1 1 0 0 0-1 1v3H7a1 1 0 0 0-1 1v54a1 1 0 0 0 1 1h46a1 1 0 0 0 1-1v-3h3a1 1 0 0 0 1-1V3a1 1 0 0 0-1-1ZM8 8h34v7a3 3 0 0 0 3 3h7v6H8Zm36 7V9.414L50.586 16H45a1 1 0 0 1-1-1Zm12 41h-2v-9a1 1 0 0 0-2 0v13H8V26h44v13a1 1 0 0 0 2 0V17a1 1 0 0 0-.293-.707l-10-10A1 1 0 0 0 43 6H12V4h44Z"></path>
  </g>
</svg>
