<svg xmlns="http://www.w3.org/2000/svg" viewBox="0 0 64 64" id="html">
  <g>
    <path d="M28 10h-6a1 1 0 0 0 0 2h2v9a1 1 0 0 0 2 0v-9h2a1 1 0 0 0 0-2zm-10 0a1 1 0 0 0-1 1v4h-4v-4a1 1 0 0 0-2 0v10a1 1 0 0 0 2 0v-4h4v4a1 1 0 0 0 2 0V11a1 1 0 0 0-1-1zm4.7 24.205a1 1 0 0 0-1.4.189l-6.092 8a1 1 0 0 0 0 1.212l6.092 8a1 1 0 0 0 1.592-1.212L17.257 43l5.631-7.394a1 1 0 0 0-.188-1.401zm15.986.188a1 1 0 1 0-1.59 1.214L42.742 43 37.1 50.393a1 1 0 0 0 1.59 1.214l6.109-8a1 1 0 0 0 0-1.214zm-6.713-.37a1 1 0 0 0-1.191.763l-3.5 16a1 1 0 1 0 1.953.428l3.5-16a1 1 0 0 0-.762-1.191zm6.294-23.987a1 1 0 0 0-1.124.449L35 14.056l-2.143-3.571A1 1 0 0 0 31 11v10a1 1 0 0 0 2 0v-6.39l1.143 1.905a1.039 1.039 0 0 0 1.714 0L37 14.61V21a1 1 0 0 0 2 0V11a1 1 0 0 0-.733-.964z"></path>
    <circle cx="53" cy="43" r="1"></circle>
    <path d="M57 2H11a1 1 0 0 0-1 1v3H7a1 1 0 0 0-1 1v54a1 1 0 0 0 1 1h46a1 1 0 0 0 1-1v-3h3a1 1 0 0 0 1-1V3a1 1 0 0 0-1-1ZM8 8h34v7a3 3 0 0 0 3 3h7v6H8Zm36 7V9.414L50.586 16H45a1 1 0 0 1-1-1Zm12 41h-2v-9a1 1 0 0 0-2 0v13H8V26h44v13a1 1 0 0 0 2 0V17a1 1 0 0 0-.293-.707l-10-10A1 1 0 0 0 43 6H12V4h44Z"></path>
  </g>
</svg>
